<svg width="50" height="50" viewBox="0 0 50 50" fill="none" xmlns="http://www.w3.org/2000/svg">
<g clip-path="url(#clip0_6_23)">
<path d="M7.42572 24.0038H43.4315C44.8494 24.0038 46.0033 22.8499 46.0033 21.432C46.0033 20.0141 44.8494 18.8602 43.4315 18.8602H42.2887L41.9081 17.948C41.1091 16.0311 40.6273 14.0251 40.4473 12.0019H9.55263C9.3726 14.0251 8.88996 16.0303 8.09097 17.948L7.7112 18.8602H7.42572C6.00778 18.8602 4.85388 20.0141 4.85388 21.432C4.85388 22.8499 6.00778 24.0038 7.42572 24.0038Z" fill="black"/>
<path d="M43.3337 27.1218C43.2274 26.6134 43.0894 26.0785 42.9059 25.4715C42.7971 25.1089 42.4636 24.8611 42.0855 24.8611H7.91435C7.53629 24.8611 7.20195 25.1089 7.09308 25.4715C6.91133 26.0785 6.77245 26.6134 6.66615 27.1218C5.11619 27.961 3.99658 29.787 3.99658 31.5693C3.99658 33.4159 5.08361 35.0756 6.74674 35.8377C8.88651 44.1996 16.3286 50.0009 24.9999 50.0009C32.0279 50.0009 38.2475 46.1894 41.4914 40.293H40.8596C37.7683 40.293 35.4433 38.5947 34.484 35.8549C33.7056 36.6479 32.6254 37.1425 31.4295 37.1425C29.066 37.1425 27.1431 35.2196 27.1431 32.8561C27.1431 30.4926 29.066 28.5697 31.4295 28.5697C33.7931 28.5697 35.7159 30.4926 35.7159 32.8561C35.7159 36.3324 37.7348 38.5785 40.8596 38.5785H42.3161C42.6899 37.6997 43.0097 36.7876 43.2531 35.8386C44.9163 35.0756 46.0033 33.4168 46.0033 31.5702C46.0033 29.787 44.8828 27.9602 43.3337 27.1218ZM19.4276 31.1407C20.3749 31.1407 21.1422 31.908 21.1422 32.8553C21.1422 33.8017 20.3749 34.5698 19.4276 34.5698C18.4803 34.5698 17.7131 33.8017 17.7131 32.8553C17.7131 31.908 18.4812 31.1407 19.4276 31.1407ZM28.0107 37.7203C30.898 37.7203 33.5547 39.4117 34.7781 42.0273C34.9787 42.4568 34.7935 42.9669 34.3649 43.1675C33.3636 43.6355 32.2997 43.8722 31.2032 43.8722C28.8114 43.8722 26.5911 42.7003 25.1997 40.8142C23.8083 42.7003 21.5888 43.8722 19.197 43.8722C18.0997 43.8722 17.0358 43.6355 16.0354 43.1675C15.6067 42.9669 15.4216 42.4568 15.6222 42.0273C16.8446 39.4117 19.5013 37.7203 22.3887 37.7203C23.3591 37.7203 24.3013 37.9166 25.1997 38.2835C26.0981 37.9166 27.0403 37.7203 28.0107 37.7203Z" fill="black"/>
<path d="M9.63228 10.2874H40.3683C40.3581 7.18401 41.0627 4.08408 42.4841 1.24048C42.617 0.974727 42.6024 0.659248 42.4464 0.406351C42.2904 0.153453 42.0143 0 41.7168 0H8.28292C7.98544 0 7.71026 0.15431 7.55423 0.407208C7.39821 0.660106 7.38363 0.975585 7.51651 1.24048C8.93788 4.08408 9.64257 7.18401 9.63228 10.2874Z" fill="black"/>
</g>
<defs>
<clipPath id="clip0_6_23">
<rect width="50" height="50" fill="white"/>
</clipPath>
</defs>
</svg>
