<svg width="2036" height="24" viewBox="0 0 2036 24" fill="none" xmlns="http://www.w3.org/2000/svg">
<rect x="49.5" y="0.5" width="23" height="23" rx="4.5" fill="white" stroke="black"/>
<rect x="0.5" y="0.5" width="23" height="23" rx="4.5" fill="white" stroke="black"/>
<rect x="1308.5" y="0.5" width="23" height="23" rx="4.5" fill="white" stroke="black"/>
<rect x="98.5" y="0.5" width="25" height="23" rx="4.5" fill="white" stroke="black"/>
<rect x="149.5" y="0.5" width="25" height="23" rx="4.5" fill="white" stroke="black"/>
<rect x="200.5" y="0.5" width="25" height="23" rx="4.5" fill="white" stroke="black"/>
<rect x="249.5" y="0.5" width="25" height="23" rx="4.5" fill="white" stroke="black"/>
<rect x="300.5" y="0.5" width="25" height="23" rx="4.5" fill="white" stroke="black"/>
<rect x="351.5" y="0.5" width="25" height="23" rx="4.5" fill="white" stroke="black"/>
<rect x="149.5" y="0.5" width="25" height="23" rx="4.5" fill="white" stroke="black"/>
<rect x="351.5" y="0.5" width="25" height="23" rx="4.5" fill="white" stroke="black"/>
<rect x="451.5" y="0.5" width="25" height="23" rx="4.5" fill="white" stroke="black"/>
<rect x="502.5" y="0.5" width="25" height="23" rx="4.5" fill="white" stroke="black"/>
<rect x="602.5" y="0.5" width="25" height="23" rx="4.5" fill="white" stroke="black"/>
<rect x="653.5" y="0.5" width="25" height="23" rx="4.5" fill="white" stroke="black"/>
<rect x="704.5" y="0.5" width="25" height="23" rx="4.5" fill="white" stroke="black"/>
<rect x="402.5" y="0.5" width="23" height="23" rx="4.5" fill="white" stroke="black"/>
<rect x="553.5" y="0.5" width="25" height="23" rx="4.5" fill="white" stroke="black"/>
<rect x="753.5" y="0.5" width="25" height="23" rx="4.5" fill="white" stroke="black"/>
<rect x="804.5" y="0.5" width="25" height="23" rx="4.5" fill="white" stroke="black"/>
<rect x="855.5" y="0.5" width="25" height="23" rx="4.5" fill="white" stroke="black"/>
<rect x="906.5" y="0.5" width="23" height="23" rx="4.5" fill="white" stroke="black"/>
<rect x="955.5" y="0.5" width="25" height="23" rx="4.5" fill="white" stroke="black"/>
<rect x="1006.5" y="0.5" width="25" height="23" rx="4.5" fill="white" stroke="black"/>
<rect x="1057.5" y="0.5" width="25" height="23" rx="4.5" fill="white" stroke="black"/>
<rect x="1106.5" y="0.5" width="25" height="23" rx="4.5" fill="white" stroke="black"/>
<rect x="1157.5" y="0.5" width="25" height="23" rx="4.5" fill="white" stroke="black"/>
<rect x="804.5" y="0.5" width="25" height="23" rx="4.5" fill="white" stroke="black"/>
<rect x="955.5" y="0.5" width="25" height="23" rx="4.5" fill="white" stroke="black"/>
<rect x="1157.5" y="0.5" width="25" height="23" rx="4.5" fill="white" stroke="black"/>
<rect x="1259.5" y="0.5" width="23" height="23" rx="4.5" fill="white" stroke="black"/>
<rect x="1208.5" y="0.5" width="25" height="23" rx="4.5" fill="white" stroke="black"/>
<rect x="49.5" y="0.5" width="23" height="23" rx="4.5" fill="white" stroke="black"/>
<rect x="0.5" y="0.5" width="23" height="23" rx="4.5" fill="white" stroke="black"/>
<rect x="1308.5" y="0.5" width="23" height="23" rx="4.5" fill="white" stroke="black"/>
<rect x="98.5" y="0.5" width="25" height="23" rx="4.5" fill="white" stroke="black"/>
<rect x="149.5" y="0.5" width="25" height="23" rx="4.5" fill="white" stroke="black"/>
<rect x="200.5" y="0.5" width="25" height="23" rx="4.5" fill="white" stroke="black"/>
<rect x="249.5" y="0.5" width="25" height="23" rx="4.5" fill="white" stroke="black"/>
<rect x="300.5" y="0.5" width="25" height="23" rx="4.5" fill="white" stroke="black"/>
<rect x="351.5" y="0.5" width="25" height="23" rx="4.5" fill="white" stroke="black"/>
<rect x="149.5" y="0.5" width="25" height="23" rx="4.5" fill="white" stroke="black"/>
<rect x="351.5" y="0.5" width="25" height="23" rx="4.5" fill="white" stroke="black"/>
<rect x="451.5" y="0.5" width="25" height="23" rx="4.5" fill="white" stroke="black"/>
<rect x="502.5" y="0.5" width="25" height="23" rx="4.5" fill="white" stroke="black"/>
<rect x="602.5" y="0.5" width="25" height="23" rx="4.5" fill="white" stroke="black"/>
<rect x="653.5" y="0.5" width="25" height="23" rx="4.5" fill="white" stroke="black"/>
<rect x="704.5" y="0.5" width="25" height="23" rx="4.5" fill="white" stroke="black"/>
<rect x="402.5" y="0.5" width="23" height="23" rx="4.5" fill="white" stroke="black"/>
<rect x="553.5" y="0.5" width="25" height="23" rx="4.5" fill="white" stroke="black"/>
<rect x="753.5" y="0.5" width="25" height="23" rx="4.5" fill="white" stroke="black"/>
<rect x="804.5" y="0.5" width="25" height="23" rx="4.5" fill="white" stroke="black"/>
<rect x="855.5" y="0.5" width="25" height="23" rx="4.5" fill="white" stroke="black"/>
<rect x="906.5" y="0.5" width="23" height="23" rx="4.5" fill="white" stroke="black"/>
<rect x="955.5" y="0.5" width="25" height="23" rx="4.5" fill="white" stroke="black"/>
<rect x="1006.5" y="0.5" width="25" height="23" rx="4.5" fill="white" stroke="black"/>
<rect x="1057.5" y="0.5" width="25" height="23" rx="4.5" fill="white" stroke="black"/>
<rect x="1106.5" y="0.5" width="25" height="23" rx="4.5" fill="white" stroke="black"/>
<rect x="1157.5" y="0.5" width="25" height="23" rx="4.5" fill="white" stroke="black"/>
<rect x="804.5" y="0.5" width="25" height="23" rx="4.5" fill="white" stroke="black"/>
<rect x="955.5" y="0.5" width="25" height="23" rx="4.5" fill="white" stroke="black"/>
<rect x="1157.5" y="0.5" width="25" height="23" rx="4.5" fill="white" stroke="black"/>
<rect x="1259.5" y="0.5" width="23" height="23" rx="4.5" fill="white" stroke="black"/>
<rect x="1208.5" y="0.5" width="25" height="23" rx="4.5" fill="white" stroke="black"/>
<rect x="1406.5" y="0.5" width="23" height="23" rx="4.5" fill="white" stroke="black"/>
<rect x="1357.5" y="0.5" width="23" height="23" rx="4.5" fill="white" stroke="black"/>
<rect x="1455.5" y="0.5" width="25" height="23" rx="4.5" fill="white" stroke="black"/>
<rect x="1506.5" y="0.5" width="25" height="23" rx="4.5" fill="white" stroke="black"/>
<rect x="1557.5" y="0.5" width="25" height="23" rx="4.5" fill="white" stroke="black"/>
<rect x="1606.5" y="0.5" width="25" height="23" rx="4.5" fill="white" stroke="black"/>
<rect x="1657.5" y="0.5" width="25" height="23" rx="4.5" fill="white" stroke="black"/>
<rect x="1708.5" y="0.5" width="25" height="23" rx="4.5" fill="white" stroke="black"/>
<rect x="1506.5" y="0.5" width="25" height="23" rx="4.5" fill="white" stroke="black"/>
<rect x="1708.5" y="0.5" width="25" height="23" rx="4.5" fill="white" stroke="black"/>
<rect x="1808.5" y="0.5" width="25" height="23" rx="4.5" fill="white" stroke="black"/>
<rect x="1859.5" y="0.5" width="25" height="23" rx="4.5" fill="white" stroke="black"/>
<rect x="1959.5" y="0.5" width="25" height="23" rx="4.5" fill="white" stroke="black"/>
<rect x="2010.5" y="0.5" width="25" height="23" rx="4.5" fill="white" stroke="black"/>
<rect x="1759.5" y="0.5" width="23" height="23" rx="4.5" fill="white" stroke="black"/>
<rect x="1910.5" y="0.5" width="25" height="23" rx="4.5" fill="white" stroke="black"/>
<rect x="1406.5" y="0.5" width="23" height="23" rx="4.5" fill="white" stroke="black"/>
<rect x="1357.5" y="0.5" width="23" height="23" rx="4.5" fill="white" stroke="black"/>
<rect x="1455.5" y="0.5" width="25" height="23" rx="4.5" fill="white" stroke="black"/>
<rect x="1506.5" y="0.5" width="25" height="23" rx="4.5" fill="white" stroke="black"/>
<rect x="1557.5" y="0.5" width="25" height="23" rx="4.5" fill="white" stroke="black"/>
<rect x="1606.5" y="0.5" width="25" height="23" rx="4.5" fill="white" stroke="black"/>
<rect x="1657.5" y="0.5" width="25" height="23" rx="4.5" fill="white" stroke="black"/>
<rect x="1708.5" y="0.5" width="25" height="23" rx="4.5" fill="white" stroke="black"/>
<rect x="1506.5" y="0.5" width="25" height="23" rx="4.5" fill="white" stroke="black"/>
<rect x="1708.5" y="0.5" width="25" height="23" rx="4.5" fill="white" stroke="black"/>
<rect x="1808.5" y="0.5" width="25" height="23" rx="4.5" fill="white" stroke="black"/>
<rect x="1859.5" y="0.5" width="25" height="23" rx="4.5" fill="white" stroke="black"/>
<rect x="1959.5" y="0.5" width="25" height="23" rx="4.5" fill="white" stroke="black"/>
<rect x="2010.5" y="0.5" width="25" height="23" rx="4.5" fill="white" stroke="black"/>
<rect x="1759.5" y="0.5" width="23" height="23" rx="4.5" fill="white" stroke="black"/>
<rect x="1910.5" y="0.5" width="25" height="23" rx="4.5" fill="white" stroke="black"/>
</svg>
